<?xml version="1.0" encoding="utf-8"?>
<!-- Generator: Adobe Illustrator 15.1.0, SVG Export Plug-In . SVG Version: 6.00 Build 0)  -->
<!DOCTYPE svg PUBLIC "-//W3C//DTD SVG 1.1//EN" "http://www.w3.org/Graphics/SVG/1.1/DTD/svg11.dtd">
<svg version="1.1" id="Ebene_1" xmlns="http://www.w3.org/2000/svg" xmlns:xlink="http://www.w3.org/1999/xlink" x="0px" y="0px"
	 width="553.742px" height="205.078px" viewBox="0 0 553.742 205.078" enable-background="new 0 0 553.742 205.078"
	 xml:space="preserve">
<path fill="#EDEDED" d="M117.48,133.992c-0.649,2.08-2.079,4.029-4.158,5.849h-0.13c-8.837,7.667-29.89,13.125-54.321,13.125
	s-45.225-5.458-54.322-13.125c-2.079-1.819-3.639-3.769-4.159-5.718v45.874C0,180.776,0,181.816,0,182.856
	c0,6.367,6.368,12.346,18.194,16.374c10.786,3.769,25.341,5.848,40.676,5.848c15.465,0,30.02-2.079,40.936-5.848
	C111.502,195.202,118,189.224,118,182.856c0-1.04-0.26-2.08-0.52-2.859V133.992z M24.952,164.532c-2.339,0.52-4.679,1.3-6.758,2.079
	c-5.458,1.819-9.617,4.029-12.736,6.498v-30.41l19.494,16.245V164.532z M34.438,167.002l8.057,6.757l0.13,0.13
	c2.729,1.82,7.797,3.119,13.646,3.379v23.522c-9.877-0.13-18.714-1.17-26.251-2.859v-30.02
	C31.449,167.651,32.879,167.262,34.438,167.002z M61.469,177.268c5.978-0.26,11.046-1.559,13.775-3.379l0.13-0.13l8.057-6.757
	c1.43,0.26,2.859,0.52,4.159,0.909v30.02c-7.408,1.689-16.245,2.729-26.121,2.859V177.268z M92.789,159.074l19.493-16.375v30.41
	c-2.989-2.469-7.147-4.679-12.476-6.498c-2.209-0.779-4.548-1.56-7.018-2.209V159.074z M5.328,185.845c0.13,0,0.13-0.13,0.13-0.26
	v-5.978c2.599-3.898,9.617-7.668,19.494-10.396v27.421C14.815,193.902,7.797,189.874,5.328,185.845z M92.789,196.762v-27.681
	c10.006,2.729,16.894,6.628,19.493,10.526v5.978c0,0.13,0.13,0.26,0.13,0.26C109.943,189.874,103.055,193.902,92.789,196.762z
	 M17.024,49.174c11.046,4.029,25.991,6.238,41.846,6.238s30.799-2.209,41.976-6.238c10.396-3.769,16.375-8.577,16.375-13.385h0.65
	C111.242,16.295,87.46,2,58.87,2C30.41,2,6.498,16.295,0,35.789h0.65C0.65,40.597,6.628,45.405,17.024,49.174z M58.87,147.27
	c32.619,0,59-9.617,59-21.313v-86.42c0,11.826-26.381,21.313-59,21.313C26.381,60.849,0,51.362,0,39.536v86.42
	C0,137.652,26.381,147.27,58.87,147.27z M205.529,66.327c0-16.322,11.607-24.06,27.688-24.06c17.048,0,25.028,8.221,28.171,8.221
	c2.176,0,6.892-8.221,6.892-11.486c0-7.738-22.368-13.059-34.579-13.059c-28.897,0-47.759,15.718-47.759,39.537
	c0,50.781,69.884,34.217,69.884,71.335c0,15.96-11.849,26.116-28.171,26.116c-22.125,0-34.216-11.002-36.998-11.002
	c-2.418,0-7.617,8.221-7.617,11.607c0,5.683,19.466,15.597,44.615,15.597c29.018,0,47.638-15.839,47.638-42.317
	C275.292,83.496,205.529,97.884,205.529,66.327z M300.925,26.791h-1.693c-6.045,0-8.705,1.693-8.705,4.715v142.066
	c0,3.022,2.66,4.716,8.705,4.716h1.693c6.045,0,8.585-1.694,8.585-4.716V31.506C309.51,28.483,306.97,26.791,300.925,26.791z
	 M416.392,161.602h-59.124V31.506c0-3.022-2.539-4.715-8.584-4.715h-1.693c-6.045,0-8.705,1.693-8.705,4.715v139.89
	c0,4.474,1.935,6.408,6.529,6.408h71.577c3.022,0,4.353-1.935,4.353-6.408v-3.265C420.744,163.537,419.414,161.602,416.392,161.602z
	 M487.243,25.944c-43.043,0-66.257,25.753-66.257,76.293c0,50.298,23.214,76.897,66.257,76.897
	c43.285,0,66.499-26.599,66.499-76.897C553.742,51.697,530.528,25.944,487.243,25.944z M487.243,162.932
	c-30.348,0-46.67-21.159-46.67-60.695c0-39.778,16.322-59.97,46.67-59.97s46.912,20.191,46.912,59.97
	C534.155,141.773,517.591,162.932,487.243,162.932z"/>
</svg>
